<svg width="16" height="17" viewBox="0 0 16 17" fill="none" xmlns="http://www.w3.org/2000/svg">
    <path d="M13.625 1.96875H12.2188V1.6875C12.2188 1.46372 12.1299 1.24911 11.9716 1.09088C11.8134 0.932645 11.5988 0.84375 11.375 0.84375C11.1512 0.84375 10.9366 0.932645 10.7784 1.09088C10.6201 1.24911 10.5312 1.46372 10.5312 1.6875V1.96875H5.46875V1.6875C5.46875 1.46372 5.37986 1.24911 5.22162 1.09088C5.06339 0.932645 4.84878 0.84375 4.625 0.84375C4.40122 0.84375 4.18661 0.932645 4.02838 1.09088C3.87014 1.24911 3.78125 1.46372 3.78125 1.6875V1.96875H2.375C2.00204 1.96875 1.64435 2.11691 1.38063 2.38063C1.11691 2.64435 0.96875 3.00204 0.96875 3.375V14.625C0.96875 14.998 1.11691 15.3556 1.38063 15.6194C1.64435 15.8831 2.00204 16.0312 2.375 16.0312H13.625C13.998 16.0312 14.3556 15.8831 14.6194 15.6194C14.8831 15.3556 15.0312 14.998 15.0312 14.625V3.375C15.0312 3.00204 14.8831 2.64435 14.6194 2.38063C14.3556 2.11691 13.998 1.96875 13.625 1.96875ZM3.78125 3.65625C3.78125 3.88003 3.87014 4.09464 4.02838 4.25287C4.18661 4.41111 4.40122 4.5 4.625 4.5C4.84878 4.5 5.06339 4.41111 5.22162 4.25287C5.37986 4.09464 5.46875 3.88003 5.46875 3.65625H10.5312C10.5312 3.88003 10.6201 4.09464 10.7784 4.25287C10.9366 4.41111 11.1512 4.5 11.375 4.5C11.5988 4.5 11.8134 4.41111 11.9716 4.25287C12.1299 4.09464 12.2188 3.88003 12.2188 3.65625H13.3438V5.34375H2.65625V3.65625H3.78125ZM2.65625 14.3438V7.03125H13.3438V14.3438H2.65625ZM6.875 8.71875V12.6562C6.875 12.88 6.78611 13.0946 6.62787 13.2529C6.46964 13.4111 6.25503 13.5 6.03125 13.5C5.80747 13.5 5.59286 13.4111 5.43463 13.2529C5.27639 13.0946 5.1875 12.88 5.1875 12.6562V10.0772C4.98674 10.1431 4.76856 10.1312 4.5761 10.044C4.38364 9.95679 4.23092 9.80053 4.14812 9.60613C4.06533 9.41173 4.05848 9.19334 4.12895 8.99413C4.19941 8.79493 4.34205 8.62941 4.52867 8.53031L5.65367 7.96781C5.78204 7.90358 5.92467 7.87315 6.06807 7.87941C6.21148 7.88568 6.35091 7.92842 6.47319 8.0036C6.59546 8.07879 6.69654 8.18392 6.76685 8.30906C6.83716 8.4342 6.87439 8.57521 6.875 8.71875ZM11.1985 11.1009L10.5242 11.8125H10.8125C11.0363 11.8125 11.2509 11.9014 11.4091 12.0596C11.5674 12.2179 11.6562 12.4325 11.6562 12.6562C11.6562 12.88 11.5674 13.0946 11.4091 13.2529C11.2509 13.4111 11.0363 13.5 10.8125 13.5H8.5625C8.39761 13.4999 8.23636 13.4516 8.09866 13.3609C7.96096 13.2702 7.85285 13.1411 7.7877 12.9896C7.72255 12.8382 7.70321 12.6709 7.73207 12.5086C7.76093 12.3462 7.83672 12.1959 7.95008 12.0762L9.93008 9.98438C9.95511 9.94172 9.96845 9.89321 9.96875 9.84375C9.96891 9.7817 9.94855 9.72135 9.91083 9.67208C9.87312 9.62281 9.82018 9.58739 9.76024 9.57135C9.70031 9.5553 9.63675 9.55952 9.57946 9.58336C9.52217 9.60719 9.47438 9.6493 9.44352 9.70312C9.32947 9.89255 9.14562 10.0296 8.93152 10.0849C8.71743 10.1402 8.4902 10.1092 8.29872 9.99859C8.10724 9.88802 7.96682 9.7067 7.90767 9.49365C7.84852 9.2806 7.87536 9.05284 7.98242 8.85938C8.1991 8.484 8.53359 8.19062 8.934 8.02474C9.33442 7.85886 9.77839 7.82975 10.197 7.94192C10.6157 8.0541 10.9856 8.30129 11.2495 8.64515C11.5133 8.98901 11.6563 9.41033 11.6562 9.84375C11.6575 10.2717 11.5182 10.6882 11.2597 11.0292C11.2408 11.0544 11.2204 11.0783 11.1985 11.1009Z" fill="#817E77"/>
</svg>
