<svg width="18" height="16" viewBox="0 0 18 16" fill="none" xmlns="http://www.w3.org/2000/svg">
    <path d="M9.00021 1.53146C7.60956 1.53146 6.25014 1.94384 5.09386 2.71644C3.93758 3.48905 3.03636 4.58718 2.50419 5.87197C1.97201 7.15676 1.83276 8.57051 2.10407 9.93444C2.37537 11.2984 3.04503 12.5512 4.02837 13.5346C5.01171 14.5179 6.26456 15.1876 7.62848 15.4589C8.99241 15.7302 10.4062 15.5909 11.691 15.0587C12.9757 14.5266 14.0739 13.6253 14.8465 12.4691C15.6191 11.3128 16.0315 9.95336 16.0315 8.56271C16.0294 6.69854 15.288 4.9113 13.9698 3.59313C12.6516 2.27496 10.8644 1.53351 9.00021 1.53146ZM9.00021 13.9065C7.94332 13.9065 6.91016 13.5931 6.03139 13.0059C5.15261 12.4187 4.46769 11.5841 4.06323 10.6077C3.65878 9.63124 3.55295 8.55679 3.75914 7.5202C3.96533 6.48361 4.47428 5.53145 5.22161 4.78411C5.96895 4.03678 6.92111 3.52783 7.9577 3.32164C8.99429 3.11545 10.0687 3.22128 11.0452 3.62573C12.0216 4.03019 12.8562 4.71511 13.4434 5.59389C14.0306 6.47266 14.344 7.50582 14.344 8.56271C14.3425 9.97951 13.779 11.3378 12.7772 12.3397C11.7753 13.3415 10.417 13.905 9.00021 13.9065ZM2.28467 4.09717C2.20618 4.17565 2.11301 4.23791 2.01046 4.28039C1.90791 4.32286 1.79801 4.34472 1.68701 4.34472C1.57602 4.34472 1.46611 4.32286 1.36356 4.28039C1.26102 4.23791 1.16784 4.17565 1.08935 4.09717C1.01087 4.01868 0.948611 3.92551 0.906135 3.82296C0.863659 3.72041 0.841797 3.61051 0.841797 3.49951C0.841797 3.38852 0.863659 3.27861 0.906135 3.17606C0.948611 3.07351 1.01087 2.98034 1.08935 2.90185L3.33935 0.651854C3.49786 0.493346 3.71285 0.404297 3.93701 0.404297C4.16118 0.404297 4.37616 0.493346 4.53467 0.651854C4.69317 0.810362 4.78222 1.02535 4.78222 1.24951C4.78222 1.47368 4.69317 1.68866 4.53467 1.84717L2.28467 4.09717ZM16.9097 4.09717C16.8313 4.17583 16.7381 4.23824 16.6356 4.28082C16.533 4.32341 16.4231 4.34533 16.312 4.34533C16.201 4.34533 16.091 4.32341 15.9884 4.28082C15.8859 4.23824 15.7927 4.17583 15.7144 4.09717L13.4644 1.84717C13.3859 1.76868 13.3236 1.67551 13.2811 1.57296C13.2387 1.47041 13.2168 1.36051 13.2168 1.24951C13.2168 1.13852 13.2387 1.02861 13.2811 0.926061C13.3236 0.823515 13.3859 0.73034 13.4644 0.651854C13.5428 0.573369 13.636 0.511111 13.7386 0.468635C13.8411 0.426159 13.951 0.404297 14.062 0.404297C14.173 0.404297 14.2829 0.426159 14.3855 0.468635C14.488 0.511111 14.5812 0.573369 14.6597 0.651854L16.9097 2.90185C16.9883 2.98024 17.0507 3.07339 17.0933 3.17594C17.1359 3.2785 17.1578 3.38846 17.1578 3.49951C17.1578 3.61056 17.1359 3.72052 17.0933 3.82308C17.0507 3.92564 16.9883 4.01878 16.9097 4.09717ZM12.3752 7.71896C12.599 7.71896 12.8136 7.80786 12.9718 7.96609C13.1301 8.12433 13.219 8.33894 13.219 8.56271C13.219 8.78649 13.1301 9.0011 12.9718 9.15933C12.8136 9.31757 12.599 9.40646 12.3752 9.40646H9.00021C8.77644 9.40646 8.56183 9.31757 8.40359 9.15933C8.24536 9.0011 8.15646 8.78649 8.15646 8.56271V5.18771C8.15646 4.96394 8.24536 4.74933 8.40359 4.59109C8.56183 4.43286 8.77644 4.34396 9.00021 4.34396C9.22399 4.34396 9.4386 4.43286 9.59683 4.59109C9.75507 4.74933 9.84396 4.96394 9.84396 5.18771V7.71896H12.3752Z" fill="#817E77"/>
</svg>
