<svg width="12" height="12" viewBox="0 0 12 12" fill="none" xmlns="http://www.w3.org/2000/svg">
    <path d="M0.342287 1.53549C0.183779 1.37698 0.0947294 1.162 0.0947294 0.937834C0.0947294 0.713669 0.183779 0.498686 0.342287 0.340178C0.500794 0.181669 0.715778 0.0926189 0.939943 0.0926189C1.16411 0.0926189 1.37909 0.181669 1.5376 0.340178L6.00174 4.80572L10.4673 0.341583C10.6258 0.183075 10.8408 0.0940256 11.0649 0.0940256C11.2891 0.0940256 11.5041 0.183075 11.6626 0.341583C11.8211 0.500091 11.9102 0.715075 11.9102 0.93924C11.9102 1.1634 11.8211 1.37839 11.6626 1.5369L7.19705 6.00104L11.6612 10.4666C11.8197 10.6251 11.9087 10.8401 11.9087 11.0642C11.9087 11.2884 11.8197 11.5034 11.6612 11.6619C11.5027 11.8204 11.2877 11.9095 11.0635 11.9095C10.8394 11.9095 10.6244 11.8204 10.4659 11.6619L6.00174 7.19635L1.53619 11.6626C1.37769 11.8211 1.1627 11.9102 0.938538 11.9102C0.714373 11.9102 0.49939 11.8211 0.340881 11.6626C0.182373 11.5041 0.0933237 11.2891 0.0933237 11.0649C0.0933237 10.8408 0.182373 10.6258 0.340881 10.4673L4.80643 6.00104L0.342287 1.53549Z" fill="#0C0932"/>
</svg>
