<svg width="18" height="17" viewBox="0 0 18 17" fill="none" xmlns="http://www.w3.org/2000/svg">
    <path d="M6.8125 7.8125C6.8125 7.56386 6.91127 7.3254 7.08709 7.14959C7.2629 6.97377 7.50136 6.875 7.75 6.875H10.25C10.4986 6.875 10.7371 6.97377 10.9129 7.14959C11.0887 7.3254 11.1875 7.56386 11.1875 7.8125C11.1875 8.06114 11.0887 8.2996 10.9129 8.47541C10.7371 8.65123 10.4986 8.75 10.25 8.75H7.75C7.50136 8.75 7.2629 8.65123 7.08709 8.47541C6.91127 8.2996 6.8125 8.06114 6.8125 7.8125ZM17.4375 5.3125V15.3125C17.4375 15.7269 17.2729 16.1243 16.9799 16.4174C16.6868 16.7104 16.2894 16.875 15.875 16.875H2.125C1.7106 16.875 1.31317 16.7104 1.02015 16.4174C0.72712 16.1243 0.5625 15.7269 0.5625 15.3125V5.3125C0.5625 4.8981 0.72712 4.50067 1.02015 4.20765C1.31317 3.91462 1.7106 3.75 2.125 3.75H4.9375V3.125C4.9375 2.54484 5.16797 1.98844 5.5782 1.5782C5.98844 1.16797 6.54484 0.9375 7.125 0.9375H10.875C11.4552 0.9375 12.0116 1.16797 12.4218 1.5782C12.832 1.98844 13.0625 2.54484 13.0625 3.125V3.75H15.875C16.2894 3.75 16.6868 3.91462 16.9799 4.20765C17.2729 4.50067 17.4375 4.8981 17.4375 5.3125ZM6.8125 3.75H11.1875V3.125C11.1875 3.04212 11.1546 2.96263 11.096 2.90403C11.0374 2.84542 10.9579 2.8125 10.875 2.8125H7.125C7.04212 2.8125 6.96263 2.84542 6.90403 2.90403C6.84542 2.96263 6.8125 3.04212 6.8125 3.125V3.75ZM2.4375 5.625V8.37734C4.46058 9.44362 6.71312 10.0006 9 10C11.287 10.0005 13.5396 9.44328 15.5625 8.37656V5.625H2.4375ZM15.5625 15V10.4641C13.4998 11.3943 11.2628 11.8753 9 11.875C6.73719 11.8754 4.50019 11.3944 2.4375 10.4641V15H15.5625Z" fill="#817E77"/>
</svg>
