<svg width="33" height="40" viewBox="0 0 33 40" fill="none" xmlns="http://www.w3.org/2000/svg">
    <path d="M10.5743 21.9608H22.4261C22.9858 21.9608 23.4553 21.7726 23.8345 21.3961C24.2138 21.0196 24.4028 20.5543 24.4015 20C24.4001 19.4458 24.2105 18.9804 23.8326 18.6039C23.4546 18.2275 22.9858 18.0392 22.4261 18.0392H10.5743C10.0146 18.0392 9.54582 18.2275 9.16788 18.6039C8.78994 18.9804 8.60031 19.4458 8.59899 20C8.59767 20.5543 8.7873 21.0203 9.16788 21.398C9.54845 21.7758 10.0173 21.9634 10.5743 21.9608ZM10.5743 27.8431H22.4261C22.9858 27.8431 23.4553 27.6549 23.8345 27.2784C24.2138 26.902 24.4028 26.4366 24.4015 25.8824C24.4001 25.3281 24.2105 24.8627 23.8326 24.4863C23.4546 24.1098 22.9858 23.9216 22.4261 23.9216H10.5743C10.0146 23.9216 9.54582 24.1098 9.16788 24.4863C8.78994 24.8627 8.60031 25.3281 8.59899 25.8824C8.59767 26.4366 8.7873 26.9026 9.16788 27.2804C9.54845 27.6582 10.0173 27.8458 10.5743 27.8431ZM10.5743 33.7255H16.5002C17.0599 33.7255 17.5294 33.5373 17.9086 33.1608C18.2879 32.7843 18.4768 32.319 18.4755 31.7647C18.4742 31.2105 18.2846 30.7451 17.9066 30.3686C17.5287 29.9922 17.0599 29.8039 16.5002 29.8039H10.5743C10.0146 29.8039 9.54582 29.9922 9.16788 30.3686C8.78994 30.7451 8.60031 31.2105 8.59899 31.7647C8.59767 32.319 8.7873 32.785 9.16788 33.1627C9.54845 33.5405 10.0173 33.7281 10.5743 33.7255ZM4.64837 39.6078C3.56195 39.6078 2.63224 39.2242 1.85923 38.4569C1.08623 37.6895 0.699071 36.766 0.697754 35.6863V4.31373C0.697754 3.2353 1.08491 2.31242 1.85923 1.5451C2.63356 0.77778 3.56327 0.393466 4.64837 0.392159H18.8212C19.348 0.392159 19.8503 0.490198 20.3284 0.686276C20.8064 0.882355 21.2258 1.16013 21.5866 1.51961L31.1669 11.0294C31.529 11.3889 31.8089 11.8059 32.0064 12.2804C32.2039 12.7549 32.3027 13.2529 32.3027 13.7745V35.6863C32.3027 36.7647 31.9162 37.6882 31.1432 38.4569C30.3702 39.2255 29.4398 39.6092 28.3521 39.6078H4.64837ZM28.3521 14.1176H21.4385C20.6154 14.1176 19.9162 13.832 19.3407 13.2608C18.7652 12.6895 18.4768 11.9948 18.4755 11.1765V4.31373H4.64837V35.6863H28.3521V14.1176Z" fill="#0D4F34"/>
</svg>
