<svg width="14" height="9" viewBox="0 0 14 9" fill="none" xmlns="http://www.w3.org/2000/svg">
    <path d="M13.2222 2.34695L7.59717 7.97195C7.51878 8.05061 7.42564 8.11303 7.32308 8.15561C7.22052 8.1982 7.11056 8.22012 6.99951 8.22012C6.88846 8.22012 6.7785 8.1982 6.67594 8.15561C6.57339 8.11303 6.48024 8.05061 6.40185 7.97195L0.776854 2.34695C0.618346 2.18845 0.529297 1.97346 0.529297 1.7493C0.529297 1.52513 0.618346 1.31015 0.776854 1.15164C0.935363 0.993133 1.15035 0.904085 1.37451 0.904085C1.59868 0.904085 1.81366 0.993133 1.97217 1.15164L7.00021 6.17969L12.0283 1.15094C12.1868 0.992431 12.4018 0.903381 12.6259 0.903381C12.8501 0.903381 13.0651 0.992431 13.2236 1.15094C13.3821 1.30945 13.4711 1.52443 13.4711 1.7486C13.4711 1.97276 13.3821 2.18774 13.2236 2.34625L13.2222 2.34695Z" fill="#817E77"/>
</svg>
