<svg width="21" height="18" viewBox="0 0 21 18" fill="none" xmlns="http://www.w3.org/2000/svg">
    <path d="M17.6875 9.6875C17.4751 9.68669 17.2635 9.71294 17.0578 9.76562C16.957 6.52031 14.7648 4.89687 13.1516 3.70469C12.2328 3.02578 11.4375 2.43828 11.4375 1.875C11.4375 1.62636 11.3387 1.3879 11.1629 1.21209C10.9871 1.03627 10.7486 0.9375 10.5 0.9375C10.2514 0.9375 10.0129 1.03627 9.83709 1.21209C9.66127 1.3879 9.5625 1.62636 9.5625 1.875C9.5625 2.43828 8.76719 3.02578 7.84375 3.70703C6.23203 4.89922 4.03984 6.51953 3.9375 9.76797C3.56816 9.67261 3.1819 9.66302 2.80828 9.73996C2.43467 9.81689 2.08361 9.9783 1.782 10.2118C1.48038 10.4454 1.2362 10.7448 1.06816 11.0872C0.900118 11.4297 0.812665 11.806 0.8125 12.1875V16.25C0.8125 16.4986 0.911272 16.7371 1.08709 16.9129C1.2629 17.0887 1.50136 17.1875 1.75 17.1875H19.25C19.4986 17.1875 19.7371 17.0887 19.9129 16.9129C20.0887 16.7371 20.1875 16.4986 20.1875 16.25V12.1875C20.1875 11.5245 19.9241 10.8886 19.4553 10.4197C18.9864 9.95089 18.3505 9.6875 17.6875 9.6875ZM3.9375 15.3125H2.6875V12.1875C2.6875 12.0217 2.75335 11.8628 2.87056 11.7456C2.98777 11.6283 3.14674 11.5625 3.3125 11.5625C3.47826 11.5625 3.63723 11.6283 3.75444 11.7456C3.87165 11.8628 3.9375 12.0217 3.9375 12.1875V15.3125ZM8.96172 5.21406C9.50859 4.8125 10.0555 4.40469 10.5 3.94297C10.9438 4.40469 11.4953 4.8125 12.0383 5.21406C13.375 6.20312 14.75 7.22188 15.1016 9.0625H5.89844C6.25 7.22188 7.625 6.20312 8.96172 5.21406ZM15.1875 15.3125H13.3125V13.125C13.3125 12.8764 13.2137 12.6379 13.0379 12.4621C12.8621 12.2863 12.6236 12.1875 12.375 12.1875C12.1264 12.1875 11.8879 12.2863 11.7121 12.4621C11.5363 12.6379 11.4375 12.8764 11.4375 13.125V15.3125H9.5625V13.125C9.5625 12.8764 9.46373 12.6379 9.28791 12.4621C9.1121 12.2863 8.87364 12.1875 8.625 12.1875C8.37636 12.1875 8.1379 12.2863 7.96209 12.4621C7.78627 12.6379 7.6875 12.8764 7.6875 13.125V15.3125H5.8125V10.9375H15.1875V15.3125ZM18.3125 15.3125H17.0625V12.1875C17.0625 12.0217 17.1283 11.8628 17.2456 11.7456C17.3628 11.6283 17.5217 11.5625 17.6875 11.5625C17.8533 11.5625 18.0122 11.6283 18.1294 11.7456C18.2467 11.8628 18.3125 12.0217 18.3125 12.1875V15.3125Z" fill="#817E77"/>
</svg>
