<svg width="18" height="13" viewBox="0 0 18 13" fill="none" xmlns="http://www.w3.org/2000/svg">
    <path fill-rule="evenodd" clip-rule="evenodd" d="M16.7608 6.38109C15.1926 9.1972 12.2187 10.9466 9.00104 10.9466C5.78133 10.9466 2.80739 9.1972 1.23917 6.38109C1.11839 6.16242 1.11839 5.93126 1.23917 5.71278C2.80739 2.8967 5.78133 1.14751 9.00104 1.14751C12.2187 1.14751 15.1926 2.8967 16.7608 5.71278C16.8837 5.93126 16.8837 6.16242 16.7608 6.38109ZM17.7626 5.15444C15.9924 1.97492 12.6352 0 9.00104 0C5.3648 0 2.00764 1.97492 0.237419 5.15444C-0.0791397 5.72174 -0.0791397 6.37213 0.237419 6.93901C2.00764 10.1185 5.3648 12.0939 9.00104 12.0939C12.6352 12.0939 15.9924 10.1185 17.7626 6.93901C18.0791 6.37217 18.0791 5.72174 17.7626 5.15444ZM9.00104 8.4008C10.2985 8.4008 11.3544 7.34492 11.3544 6.04684C11.3544 4.74876 10.2985 3.69288 9.00104 3.69288C7.70148 3.69288 6.6456 4.74876 6.6456 6.04684C6.6456 7.34492 7.70152 8.4008 9.00104 8.4008ZM9.00104 2.54537C7.06837 2.54537 5.4981 4.11629 5.4981 6.04688C5.4981 7.97788 7.0684 9.54815 9.00104 9.54815C10.9316 9.54815 12.5019 7.97785 12.5019 6.04688C12.5019 4.11629 10.9316 2.54537 9.00104 2.54537Z" fill="#606060"/>
</svg>
