<svg width="20" height="18" viewBox="0 0 20 18" fill="none" xmlns="http://www.w3.org/2000/svg">
    <path d="M13.1038 10.2702L12.1872 9.35352C12.5483 8.3674 12.3608 7.54796 11.6247 6.89518C10.8886 6.2424 10.09 6.07574 9.22884 6.39518L8.31217 5.47852C8.54829 5.32574 8.81217 5.21463 9.10384 5.14518C9.39551 5.07574 9.69412 5.04102 9.99967 5.04102C10.9858 5.04102 11.8226 5.38477 12.5101 6.07227C13.1976 6.75977 13.5413 7.59657 13.5413 8.58268C13.5413 8.88824 13.5031 9.19032 13.4268 9.48893C13.3504 9.78754 13.2427 10.048 13.1038 10.2702ZM15.7913 12.9577L14.958 12.1243C15.6386 11.6243 16.2323 11.0653 16.7393 10.4473C17.2462 9.82921 17.6177 9.20768 17.8538 8.58268C17.1594 7.04102 16.1177 5.82227 14.7288 4.92643C13.34 4.0306 11.833 3.58268 10.208 3.58268C9.62467 3.58268 9.02745 3.63824 8.41634 3.74935C7.80523 3.86046 7.32606 3.9924 6.97884 4.14518L6.02051 3.16602C6.50662 2.94379 7.12815 2.74935 7.88509 2.58268C8.64203 2.41602 9.38162 2.33268 10.1038 2.33268C12.09 2.33268 13.9059 2.89865 15.5518 4.0306C17.1976 5.16254 18.4025 6.6799 19.1663 8.58268C18.8052 9.47157 18.34 10.2841 17.7705 11.0202C17.2011 11.7563 16.5413 12.4021 15.7913 12.9577ZM16.9997 17.666L13.4997 14.2285C13.0136 14.423 12.465 14.5723 11.8538 14.6764C11.2427 14.7806 10.6247 14.8327 9.99967 14.8327C7.9719 14.8327 6.13162 14.2667 4.47884 13.1348C2.82606 12.0028 1.61079 10.4855 0.833008 8.58268C1.11079 7.86046 1.4962 7.1556 1.98926 6.4681C2.48231 5.7806 3.08301 5.12435 3.79134 4.49935L1.16634 1.87435L2.04134 0.978516L17.8122 16.7493L16.9997 17.666ZM4.64551 5.37435C4.13162 5.74935 3.63509 6.2424 3.15592 6.85352C2.67676 7.46463 2.33301 8.04102 2.12467 8.58268C2.83301 10.1243 3.89898 11.3431 5.32259 12.2389C6.7462 13.1348 8.36078 13.5827 10.1663 13.5827C10.6247 13.5827 11.0761 13.5549 11.5205 13.4993C11.965 13.4438 12.2983 13.3605 12.5205 13.2493L11.1872 11.916C11.0344 11.9855 10.8469 12.0375 10.6247 12.0723C10.4025 12.107 10.1941 12.1243 9.99967 12.1243C9.02745 12.1243 8.19412 11.7841 7.49967 11.1035C6.80523 10.423 6.45801 9.58268 6.45801 8.58268C6.45801 8.37435 6.47537 8.16602 6.51009 7.95768C6.54481 7.74935 6.5969 7.56185 6.66634 7.39518L4.64551 5.37435Z" fill="#606060"/>
</svg>
