<svg width="17" height="16" viewBox="0 0 17 16" fill="none" xmlns="http://www.w3.org/2000/svg">
    <path d="M9.9375 4.25003V7.46956L12.607 9.07112C12.715 9.13322 12.8095 9.21621 12.885 9.31524C12.9605 9.41427 13.0155 9.52736 13.0469 9.64789C13.0782 9.76843 13.0852 9.894 13.0675 10.0173C13.0497 10.1405 13.0076 10.259 12.9436 10.3658C12.8795 10.4727 12.7948 10.5656 12.6945 10.6394C12.5941 10.7131 12.48 10.7661 12.3589 10.7952C12.2379 10.8243 12.1122 10.8291 11.9893 10.8091C11.8663 10.7892 11.7486 10.7449 11.643 10.6789L8.51797 8.80393C8.37909 8.72068 8.26414 8.60287 8.18432 8.46199C8.1045 8.3211 8.06253 8.16195 8.0625 8.00003V4.25003C8.0625 4.00139 8.16127 3.76293 8.33709 3.58711C8.5129 3.4113 8.75136 3.31253 9 3.31253C9.24864 3.31253 9.4871 3.4113 9.66291 3.58711C9.83873 3.76293 9.9375 4.00139 9.9375 4.25003ZM9 0.187526C7.97273 0.184881 6.95515 0.386122 6.00621 0.779589C5.05728 1.17306 4.19586 1.75092 3.47188 2.47971C3.10547 2.85003 2.76875 3.21174 2.4375 3.57346V3.00003C2.4375 2.75139 2.33873 2.51293 2.16291 2.33711C1.9871 2.1613 1.74864 2.06253 1.5 2.06253C1.25136 2.06253 1.0129 2.1613 0.837087 2.33711C0.661272 2.51293 0.5625 2.75139 0.5625 3.00003V6.12503C0.5625 6.37367 0.661272 6.61212 0.837087 6.78794C1.0129 6.96375 1.25136 7.06253 1.5 7.06253H4.625C4.87364 7.06253 5.1121 6.96375 5.28791 6.78794C5.46373 6.61212 5.5625 6.37367 5.5625 6.12503C5.5625 5.87639 5.46373 5.63793 5.28791 5.46211C5.1121 5.2863 4.87364 5.18753 4.625 5.18753H3.51328C3.92188 4.71878 4.34141 4.26721 4.80156 3.80159C5.62669 2.97623 6.67675 2.41233 7.82054 2.18038C8.96433 1.94842 10.1511 2.05869 11.2326 2.49741C12.3141 2.93612 13.2423 3.68383 13.9012 4.64708C14.5601 5.61034 14.9206 6.74642 14.9375 7.91337C14.9544 9.08032 14.627 10.2264 13.9963 11.2083C13.3656 12.1903 12.4594 12.9646 11.3911 13.4344C10.3228 13.9043 9.13973 14.0489 7.9897 13.8502C6.83967 13.6515 5.7737 13.1183 4.925 12.3172C4.74411 12.1465 4.50281 12.0546 4.25418 12.0618C4.00555 12.069 3.76995 12.1746 3.59922 12.3555C3.42849 12.5364 3.3366 12.7777 3.34378 13.0263C3.35096 13.2749 3.45661 13.5105 3.6375 13.6813C4.56486 14.5566 5.69242 15.1917 6.92171 15.531C8.151 15.8702 9.44466 15.9034 10.6897 15.6276C11.9348 15.3519 13.0934 14.7755 14.0645 13.9488C15.0355 13.1222 15.7894 12.0704 16.2604 10.8853C16.7314 9.70018 16.9051 8.4178 16.7663 7.15012C16.6276 5.88243 16.1807 4.66798 15.4645 3.61279C14.7484 2.55761 13.7848 1.69377 12.658 1.0967C11.5311 0.499637 10.2753 0.187493 9 0.187526Z" fill="#817E77"/>
</svg>
