<svg width="20" height="17" viewBox="0 0 20 17" fill="none" xmlns="http://www.w3.org/2000/svg">
    <path d="M18.75 15.25H17.5V9.62502L17.6828 9.80783C17.8003 9.92511 17.9596 9.99091 18.1256 9.99076C18.2916 9.99062 18.4507 9.92453 18.568 9.80705C18.6852 9.68957 18.751 9.53031 18.7509 9.36431C18.7508 9.19831 18.6847 9.03917 18.5672 8.92189L10.8836 1.24064C10.6492 1.0064 10.3314 0.874817 10 0.874817C9.66862 0.874817 9.3508 1.0064 9.11641 1.24064L1.43281 8.92189C1.31564 9.03917 1.24986 9.19819 1.24993 9.36397C1.25 9.52975 1.31593 9.68871 1.4332 9.80588C1.55048 9.92305 1.7095 9.98884 1.87528 9.98876C2.04106 9.98869 2.20002 9.92276 2.31719 9.80549L2.5 9.62502V15.25H1.25C1.08424 15.25 0.925268 15.3159 0.808058 15.4331C0.690848 15.5503 0.625 15.7093 0.625 15.875C0.625 16.0408 0.690848 16.1997 0.808058 16.317C0.925268 16.4342 1.08424 16.5 1.25 16.5H18.75C18.9158 16.5 19.0747 16.4342 19.1919 16.317C19.3092 16.1997 19.375 16.0408 19.375 15.875C19.375 15.7093 19.3092 15.5503 19.1919 15.4331C19.0747 15.3159 18.9158 15.25 18.75 15.25ZM11.875 15.25H8.125V11.5C8.125 11.4171 8.15792 11.3377 8.21653 11.279C8.27513 11.2204 8.35462 11.1875 8.4375 11.1875H11.5625C11.6454 11.1875 11.7249 11.2204 11.7835 11.279C11.8421 11.3377 11.875 11.4171 11.875 11.5V15.25Z" fill="#0D4F34"/>
</svg>
