<svg width="17" height="16" viewBox="0 0 17 16" fill="none" xmlns="http://www.w3.org/2000/svg">
    <path d="M15.375 0.8125H1.625C1.2106 0.8125 0.813171 0.97712 0.520146 1.27015C0.22712 1.56317 0.0625 1.9606 0.0625 2.375V10.5C0.0625 10.9144 0.22712 11.3118 0.520146 11.6049C0.813171 11.8979 1.2106 12.0625 1.625 12.0625H15.375C15.7894 12.0625 16.1868 11.8979 16.4799 11.6049C16.7729 11.3118 16.9375 10.9144 16.9375 10.5V2.375C16.9375 1.9606 16.7729 1.56317 16.4799 1.27015C16.1868 0.97712 15.7894 0.8125 15.375 0.8125ZM15.0625 10.1875H1.9375V2.6875H15.0625V10.1875ZM16.9375 14.25C16.9375 14.4986 16.8387 14.7371 16.6629 14.9129C16.4871 15.0887 16.2486 15.1875 16 15.1875H1C0.75136 15.1875 0.512903 15.0887 0.337087 14.9129C0.161272 14.7371 0.0625 14.4986 0.0625 14.25C0.0625 14.0014 0.161272 13.7629 0.337087 13.5871C0.512903 13.4113 0.75136 13.3125 1 13.3125H16C16.2486 13.3125 16.4871 13.4113 16.6629 13.5871C16.8387 13.7629 16.9375 14.0014 16.9375 14.25ZM6.625 8V4.875C6.62494 4.70762 6.6697 4.54329 6.75461 4.39905C6.83953 4.25482 6.96151 4.13595 7.10789 4.05478C7.25427 3.97362 7.41971 3.93313 7.58703 3.93751C7.75435 3.94189 7.91744 3.99098 8.05937 4.07969L10.5594 5.64219C10.6943 5.72643 10.8057 5.84363 10.8828 5.98277C10.96 6.12191 11.0005 6.27839 11.0005 6.4375C11.0005 6.59661 10.96 6.75309 10.8828 6.89223C10.8057 7.03137 10.6943 7.14857 10.5594 7.23281L8.05937 8.79531C7.91744 8.88402 7.75435 8.93312 7.58703 8.93749C7.41971 8.94187 7.25427 8.90138 7.10789 8.82022C6.96151 8.73905 6.83953 8.62018 6.75461 8.47595C6.6697 8.33171 6.62494 8.16738 6.625 8Z" fill="#817E77"/>
</svg>
