<svg width="17" height="16" viewBox="0 0 17 16" fill="none" xmlns="http://www.w3.org/2000/svg">
    <path d="M16.6295 13.8099L12.692 5.93492C12.6218 5.79489 12.5141 5.67713 12.3809 5.59483C12.2476 5.51254 12.0941 5.46895 11.9375 5.46895C11.7809 5.46895 11.6274 5.51254 11.4941 5.59483C11.3609 5.67713 11.2532 5.79489 11.183 5.93492L9.74023 8.81773C8.76821 8.73276 7.83225 8.40886 7.01562 7.87484C8.00798 6.7208 8.62874 5.294 8.79664 3.78125H10.25C10.4738 3.78125 10.6884 3.69236 10.8466 3.53412C11.0049 3.37589 11.0938 3.16128 11.0938 2.9375C11.0938 2.71372 11.0049 2.49911 10.8466 2.34088C10.6884 2.18264 10.4738 2.09375 10.25 2.09375H6.59375V1.25C6.59375 1.02622 6.50486 0.811612 6.34662 0.653379C6.18839 0.495145 5.97378 0.40625 5.75 0.40625C5.52622 0.40625 5.31161 0.495145 5.15338 0.653379C4.99514 0.811612 4.90625 1.02622 4.90625 1.25V2.09375H1.25C1.02622 2.09375 0.811612 2.18264 0.653379 2.34088C0.495145 2.49911 0.40625 2.71372 0.40625 2.9375C0.40625 3.16128 0.495145 3.37589 0.653379 3.53412C0.811612 3.69236 1.02622 3.78125 1.25 3.78125H7.09508C6.93681 4.8809 6.47047 5.91328 5.75 6.75898C5.39841 6.34756 5.10504 5.88976 4.87812 5.39844C4.83368 5.2951 4.76902 5.2017 4.68795 5.12372C4.60688 5.04574 4.51104 4.98476 4.40606 4.94436C4.30107 4.90396 4.18907 4.88496 4.07664 4.88847C3.96421 4.89199 3.85362 4.91796 3.75137 4.96484C3.64912 5.01172 3.55727 5.07858 3.48124 5.16147C3.4052 5.24437 3.34651 5.34163 3.30861 5.44754C3.27071 5.55345 3.25437 5.66587 3.26055 5.77819C3.26674 5.89051 3.29532 6.00045 3.34461 6.10156C3.63976 6.74346 4.02342 7.34083 4.48438 7.87625C3.52415 8.5083 2.39957 8.8447 1.25 8.84375C1.02622 8.84375 0.811612 8.93264 0.653379 9.09088C0.495145 9.24911 0.40625 9.46372 0.40625 9.6875C0.40625 9.91128 0.495145 10.1259 0.653379 10.2841C0.811612 10.4424 1.02622 10.5312 1.25 10.5312C2.87003 10.5326 4.44759 10.0132 5.75 9.04976C6.69451 9.74484 7.78667 10.2126 8.94148 10.4166L7.24484 13.8099C7.19211 13.9093 7.15979 14.0183 7.14978 14.1303C7.13978 14.2424 7.15229 14.3553 7.18658 14.4625C7.22087 14.5697 7.27624 14.6689 7.34945 14.7543C7.42266 14.8398 7.51222 14.9097 7.61285 14.96C7.71349 15.0104 7.82318 15.04 7.93546 15.0473C8.04774 15.0546 8.16034 15.0394 8.26665 15.0025C8.37295 14.9657 8.47081 14.9079 8.55446 14.8327C8.63812 14.7574 8.70587 14.6662 8.75375 14.5644L9.64602 12.7812H14.2283L15.1198 14.5644C15.2199 14.7646 15.3954 14.9168 15.6077 14.9876C15.82 15.0584 16.0517 15.042 16.2519 14.942C16.4521 14.8419 16.6043 14.6664 16.6751 14.4541C16.7459 14.2418 16.7295 14.0101 16.6295 13.8099ZM10.4898 11.0938L11.9375 8.19898L13.3845 11.0938H10.4898Z" fill="#01140F"/>
</svg>
