<svg width="18" height="18" viewBox="0 0 18 18" fill="none" xmlns="http://www.w3.org/2000/svg">
    <g clip-path="url(#clip0_4014_65)">
        <path d="M16.875 8.15625H15.4139C15.2258 6.74503 14.5785 5.43495 13.5718 4.42824C12.565 3.42154 11.255 2.77418 9.84375 2.58609V1.125C9.84375 0.901224 9.75486 0.686612 9.59662 0.528379C9.43839 0.370145 9.22378 0.28125 9 0.28125C8.77622 0.28125 8.56161 0.370145 8.40338 0.528379C8.24514 0.686612 8.15625 0.901224 8.15625 1.125V2.58609C6.74503 2.77418 5.43495 3.42154 4.42824 4.42824C3.42154 5.43495 2.77418 6.74503 2.58609 8.15625H1.125C0.901224 8.15625 0.686612 8.24514 0.528379 8.40338C0.370145 8.56161 0.28125 8.77622 0.28125 9C0.28125 9.22378 0.370145 9.43839 0.528379 9.59662C0.686612 9.75486 0.901224 9.84375 1.125 9.84375H2.58609C2.77418 11.255 3.42154 12.565 4.42824 13.5718C5.43495 14.5785 6.74503 15.2258 8.15625 15.4139V16.875C8.15625 17.0988 8.24514 17.3134 8.40338 17.4716C8.56161 17.6299 8.77622 17.7188 9 17.7188C9.22378 17.7188 9.43839 17.6299 9.59662 17.4716C9.75486 17.3134 9.84375 17.0988 9.84375 16.875V15.4139C11.255 15.2258 12.565 14.5785 13.5718 13.5718C14.5785 12.565 15.2258 11.255 15.4139 9.84375H16.875C17.0988 9.84375 17.3134 9.75486 17.4716 9.59662C17.6299 9.43839 17.7188 9.22378 17.7188 9C17.7188 8.77622 17.6299 8.56161 17.4716 8.40338C17.3134 8.24514 17.0988 8.15625 16.875 8.15625ZM9 13.7812C8.05436 13.7812 7.12995 13.5008 6.34368 12.9755C5.55741 12.4501 4.94458 11.7034 4.5827 10.8297C4.22082 9.95605 4.12613 8.9947 4.31062 8.06722C4.49511 7.13975 4.95048 6.28782 5.61915 5.61915C6.28782 4.95048 7.13975 4.49511 8.06722 4.31062C8.9947 4.12613 9.95605 4.22082 10.8297 4.5827C11.7034 4.94458 12.4501 5.55741 12.9755 6.34368C13.5008 7.12995 13.7812 8.05436 13.7812 9C13.7799 10.2677 13.2758 11.483 12.3794 12.3794C11.483 13.2758 10.2677 13.7799 9 13.7812ZM9 5.90625C8.38811 5.90625 7.78997 6.0877 7.2812 6.42764C6.77244 6.76759 6.37591 7.25076 6.14175 7.81607C5.90759 8.38138 5.84632 9.00343 5.9657 9.60356C6.08507 10.2037 6.37972 10.7549 6.81239 11.1876C7.24506 11.6203 7.79631 11.9149 8.39644 12.0343C8.99657 12.1537 9.61862 12.0924 10.1839 11.8583C10.7492 11.6241 11.2324 11.2276 11.5724 10.7188C11.9123 10.21 12.0938 9.61189 12.0938 9C12.0928 8.17977 11.7666 7.3934 11.1866 6.81342C10.6066 6.23343 9.82023 5.90718 9 5.90625ZM9 10.4062C8.72187 10.4062 8.44999 10.3238 8.21873 10.1693C7.98747 10.0147 7.80723 9.79511 7.70079 9.53815C7.59436 9.28119 7.56651 8.99844 7.62077 8.72565C7.67503 8.45287 7.80896 8.2023 8.00563 8.00563C8.2023 7.80896 8.45287 7.67503 8.72565 7.62077C8.99844 7.56651 9.28119 7.59436 9.53815 7.70079C9.79511 7.80723 10.0147 7.98747 10.1693 8.21873C10.3238 8.44999 10.4062 8.72187 10.4062 9C10.4062 9.37296 10.2581 9.73065 9.99437 9.99437C9.73065 10.2581 9.37296 10.4062 9 10.4062Z" fill="#3E4041"/>
    </g>
    <defs>
        <clipPath id="clip0_4014_65">
            <rect width="18" height="18" fill="white"/>
        </clipPath>
    </defs>
</svg>
