<svg width="39" height="32" viewBox="0 0 39 32" fill="none" xmlns="http://www.w3.org/2000/svg">
    <path d="M23.6032 26.5813C21.6516 25.5871 20.013 24.0726 18.8685 22.2052C17.724 20.3378 17.1183 18.1902 17.1183 16C17.1183 13.8098 17.724 11.6622 18.8685 9.79482C20.013 7.92741 21.6516 6.41289 23.6032 5.41875C23.9107 5.26155 24.1689 5.02247 24.3492 4.72787C24.5294 4.43327 24.6248 4.0946 24.6248 3.74922C24.6248 3.40384 24.5294 3.06517 24.3492 2.77057C24.1689 2.47597 23.9107 2.23689 23.6032 2.07969C21.2212 0.865277 18.5674 0.28244 15.8957 0.386941C13.224 0.491441 10.6238 1.27978 8.34387 2.67654C6.06397 4.0733 4.18063 6.03174 2.87405 8.3645C1.56746 10.6972 0.881348 13.3263 0.881348 16C0.881348 18.6737 1.56746 21.3028 2.87405 23.6355C4.18063 25.9683 6.06397 27.9267 8.34387 29.3235C10.6238 30.7202 13.224 31.5086 15.8957 31.6131C18.5674 31.7176 21.2212 31.1347 23.6032 29.9203C23.9107 29.7631 24.1689 29.524 24.3492 29.2294C24.5294 28.9348 24.6248 28.5962 24.6248 28.2508C24.6248 27.9054 24.5294 27.5667 24.3492 27.2721C24.1689 26.9775 23.9107 26.7385 23.6032 26.5813ZM16.5001 27.875C13.3506 27.875 10.3302 26.6239 8.1032 24.3969C5.8762 22.1699 4.62509 19.1494 4.62509 16C4.62509 12.8506 5.8762 9.8301 8.1032 7.60311C10.3302 5.37611 13.3506 4.125 16.5001 4.125C17.211 4.12438 17.9205 4.1866 18.6204 4.31094C16.9708 5.77886 15.6505 7.57934 14.7465 9.59398C13.8424 11.6086 13.375 13.7918 13.375 16C13.375 18.2082 13.8424 20.3914 14.7465 22.406C15.6505 24.4207 16.9708 26.2211 18.6204 27.6891C17.9205 27.8134 17.211 27.8756 16.5001 27.875ZM37.8673 14.2813L34.0735 12.6406L33.7423 8.35625C33.7137 7.9835 33.5743 7.62781 33.342 7.33486C33.1098 7.04191 32.7952 6.82508 32.4388 6.71221C32.0824 6.59934 31.7004 6.59559 31.3419 6.70144C30.9833 6.8073 30.6646 7.01792 30.4267 7.30625L27.7704 10.5219L23.8235 9.54531C23.4654 9.45697 23.0892 9.47624 22.7419 9.60069C22.3947 9.72513 22.0918 9.94924 21.8713 10.245C21.6508 10.5407 21.5225 10.8949 21.5023 11.2632C21.4821 11.6315 21.571 11.9976 21.7579 12.3156L23.9282 16L21.7595 19.6844C21.5726 20.0024 21.4837 20.3685 21.5039 20.7368C21.524 21.1051 21.6524 21.4593 21.8729 21.755C22.0934 22.0508 22.3962 22.2749 22.7435 22.3993C23.0907 22.5238 23.467 22.543 23.8251 22.4547L27.772 21.4781L30.4282 24.6938C30.6042 24.907 30.8252 25.0786 31.0754 25.1964C31.3255 25.3141 31.5986 25.3751 31.8751 25.375C32.067 25.3753 32.2578 25.3457 32.4407 25.2875C32.797 25.1746 33.1115 24.9578 33.3436 24.6649C33.5758 24.372 33.7152 24.0164 33.7438 23.6438L34.0751 19.3594L37.8673 17.7188C38.2018 17.5729 38.4865 17.3326 38.6865 17.0273C38.8864 16.722 38.9929 16.365 38.9929 16C38.9929 15.635 38.8864 15.278 38.6865 14.9727C38.4865 14.6674 38.2018 14.4271 37.8673 14.2813ZM31.5485 16.3672C31.235 16.5025 30.9643 16.7208 30.7658 16.9987C30.5673 17.2765 30.4484 17.6033 30.422 17.9438L30.361 18.725L29.9126 18.1875C29.7367 17.9745 29.516 17.803 29.2661 17.6852C29.0163 17.5674 28.7435 17.5063 28.4673 17.5063C28.3156 17.5058 28.1644 17.5242 28.0173 17.5609L27.2532 17.75L27.722 16.9578C27.8918 16.6695 27.9814 16.3409 27.9814 16.0063C27.9814 15.6716 27.8918 15.343 27.722 15.0547L27.2532 14.2625L28.0173 14.4516C28.36 14.5364 28.7197 14.5227 29.055 14.4122C29.3903 14.3016 29.6876 14.0986 29.9126 13.8266L30.361 13.2828L30.422 14.0641C30.4484 14.4045 30.5673 14.7313 30.7658 15.0092C30.9643 15.287 31.235 15.5053 31.5485 15.6406L32.3923 16.0047L31.5485 16.3672Z" fill="#0D4F34"/>
</svg>
