<svg width="14" height="18" viewBox="0 0 14 18" fill="none" xmlns="http://www.w3.org/2000/svg">
    <path d="M9.25127 13.5V14.0625C9.25127 14.6592 9.01422 15.2315 8.59226 15.6535C8.17031 16.0754 7.59801 16.3125 7.00127 16.3125C6.40454 16.3125 5.83224 16.0754 5.41028 15.6535C4.98833 15.2315 4.75127 14.6592 4.75127 14.0625V13.5M13.0369 12.355C12.1341 11.25 11.4967 10.6875 11.4967 7.64121C11.4967 4.85156 10.0722 3.8577 8.89971 3.375C8.74397 3.31102 8.59737 3.16406 8.5499 3.0041C8.34424 2.30414 7.76768 1.6875 7.00127 1.6875C6.23487 1.6875 5.65795 2.30449 5.4544 3.0048C5.40694 3.16652 5.26034 3.31102 5.10459 3.375C3.93073 3.8584 2.5076 4.84875 2.5076 7.64121C2.50584 10.6875 1.86846 11.25 0.965647 12.355C0.591585 12.8127 0.919241 13.5 1.5735 13.5H12.4326C13.0833 13.5 13.4089 12.8106 13.0369 12.355Z" stroke="#01140F" stroke-width="1.5" stroke-linecap="round" stroke-linejoin="round"/>
</svg>
