<svg width="19" height="24" viewBox="0 0 19 24" fill="none" xmlns="http://www.w3.org/2000/svg">
    <path d="M10.6875 8.4375H17.2188L10.6875 1.90625V8.4375ZM2.375 0.125H11.875L19 7.25V21.5C19 22.1299 18.7498 22.734 18.3044 23.1794C17.859 23.6248 17.2549 23.875 16.625 23.875H2.375C1.74511 23.875 1.14102 23.6248 0.695621 23.1794C0.250222 22.734 0 22.1299 0 21.5V2.5C0 1.87011 0.250222 1.26602 0.695621 0.820621C1.14102 0.375222 1.74511 0.125 2.375 0.125ZM8.22938 12.5225C8.71625 13.5912 9.33375 14.47 10.0463 15.0756L10.5331 15.4556C9.5 15.6456 8.075 15.9781 6.56687 16.56L6.43625 16.6075L7.03 15.3725C7.56437 14.3394 7.95625 13.4012 8.22938 12.5225ZM15.9244 17.0469C16.1381 16.8331 16.245 16.56 16.2569 16.2631C16.2925 16.0256 16.2331 15.8 16.1144 15.61C15.77 15.0519 14.8794 14.7906 13.4069 14.7906L11.875 14.8737L10.8419 14.185C10.0938 13.5675 9.41687 12.4869 8.94187 11.145L8.98937 10.9788C9.38125 9.39937 9.74938 7.4875 8.96562 6.70375C8.86976 6.61066 8.75636 6.53754 8.63202 6.48861C8.50767 6.43969 8.37485 6.41594 8.24125 6.41875H7.95625C7.51687 6.41875 7.125 6.88187 7.01812 7.33312C6.57875 8.9125 6.84 9.77938 7.27938 11.2163V11.2281C6.9825 12.2731 6.6025 13.4844 5.99688 14.7075L4.85688 16.845L3.8 17.4269C2.375 18.3175 1.69813 19.315 1.5675 19.9444C1.52 20.17 1.54375 20.3719 1.62687 20.5856L1.6625 20.645L2.2325 21.0131L2.755 21.1438C3.71688 21.1438 4.80937 20.0156 6.28188 17.4981L6.49563 17.415C7.71875 17.0231 9.23875 16.75 11.2812 16.5244C12.5044 17.13 13.9412 17.4031 14.8438 17.4031C15.3663 17.4031 15.7225 17.2725 15.9244 17.0469ZM15.4375 16.2038L15.5444 16.3344C15.5325 16.4531 15.4969 16.465 15.4375 16.4888H15.39L15.1644 16.5125C14.6181 16.5125 13.775 16.2869 12.9081 15.9069C13.015 15.7881 13.0625 15.7881 13.1813 15.7881C14.8438 15.7881 15.3188 16.085 15.4375 16.2038ZM4.54812 17.9375C3.77625 19.3506 3.07562 20.1344 2.54125 20.3125C2.60062 19.8612 3.135 19.0775 3.97812 18.3056L4.54812 17.9375ZM8.13438 9.73188C7.86125 8.66313 7.84937 7.79625 8.05125 7.2975L8.13438 7.155L8.3125 7.21437C8.51437 7.49937 8.53813 7.87937 8.41938 8.52062L8.38375 8.71062L8.19375 9.68437L8.13438 9.73188Z" fill="#EF5350"/>
</svg>
