<svg width="20" height="20" viewBox="0 0 20 20" fill="none" xmlns="http://www.w3.org/2000/svg">
    <path d="M10.5 8C10.5 6.34 9.16 5 7.5 5C5.86 5 4.5 6.34 4.5 8C4.5 9.64 5.86 11 7.5 11C9.16 11 10.5 9.64 10.5 8ZM7.5 9C6.96 9 6.5 8.54 6.5 8C6.5 7.44 6.96 7 7.5 7C8.06 7 8.5 7.44 8.5 8C8.5 8.54 8.06 9 7.5 9ZM14 11C15.12 11 16 10.1 16 9C16 7.88 15.12 7 14 7C12.9 7 12 7.88 12 9C12 10.1 12.9 11 14 11ZM10 0C4.5 0 0 4.5 0 10C0 15.5 4.5 20 10 20C15.5 20 20 15.5 20 10C20 4.5 15.5 0 10 0ZM3.85 15.11C4.53 14.57 6.12 14 7.5 14H7.74C8 13.37 8.41 12.72 9.04 12.15C8.5 12.05 7.95 12 7.5 12C6.21 12 4.12 12.44 2.78 13.42C2.28 12.38 2 11.22 2 10C2 5.58 5.59 2 10 2C14.41 2 18 5.58 18 10C18 11.19 17.73 12.33 17.25 13.36C16.25 12.77 14.89 12.5 14 12.5C12.5 12.5 9.5 13.3 9.5 15.19V17.97C8.41228 17.907 7.34922 17.6205 6.37713 17.1285C5.40503 16.6364 4.54477 15.9493 3.85 15.11Z" fill="#0D4F34"/>
</svg>
