<svg width="16" height="20" viewBox="0 0 16 20" fill="none" xmlns="http://www.w3.org/2000/svg">
    <path d="M8 11.5L10.125 13.125C10.225 13.2083 10.325 13.2127 10.425 13.138C10.525 13.0633 10.5583 12.9673 10.525 12.85L9.7 10.2L11.925 8.45C12.0083 8.36667 12.0333 8.27067 12 8.162C11.9667 8.05333 11.8917 7.99933 11.775 8H9.1L8.25 5.325C8.21667 5.20833 8.13333 5.15 8 5.15C7.86667 5.15 7.78333 5.20833 7.75 5.325L6.9 8H4.225C4.10833 8 4.029 8.05434 3.987 8.163C3.945 8.27167 3.966 8.36733 4.05 8.45L6.25 10.2L5.425 12.875C5.39167 12.9917 5.425 13.0877 5.525 13.163C5.625 13.2383 5.725 13.234 5.825 13.15L8 11.5ZM8 19.9C7.88333 19.9 7.775 19.8917 7.675 19.875C7.575 19.8583 7.475 19.8333 7.375 19.8C5.125 19.05 3.33333 17.6623 2 15.637C0.666667 13.6117 0 11.4327 0 9.1V4.375C0 3.95833 0.121 3.58333 0.363 3.25C0.605 2.91667 0.917333 2.675 1.3 2.525L7.3 0.275002C7.53333 0.191668 7.76667 0.150002 8 0.150002C8.23333 0.150002 8.46667 0.191668 8.7 0.275002L14.7 2.525C15.0833 2.675 15.396 2.91667 15.638 3.25C15.88 3.58333 16.0007 3.95833 16 4.375V9.1C16 11.4333 15.3333 13.6127 14 15.638C12.6667 17.6633 10.875 19.0507 8.625 19.8C8.525 19.8333 8.425 19.8583 8.325 19.875C8.225 19.8917 8.11667 19.9 8 19.9ZM8 17.9C9.73333 17.35 11.1667 16.25 12.3 14.6C13.4333 12.95 14 11.1167 14 9.1V4.375L8 2.125L2 4.375V9.1C2 11.1167 2.56667 12.95 3.7 14.6C4.83333 16.25 6.26667 17.35 8 17.9Z" fill="#0D4F34"/>
</svg>
