<svg width="18" height="18" viewBox="0 0 18 18" fill="none" xmlns="http://www.w3.org/2000/svg">
    <rect width="18" height="18" rx="9" fill="#0D4F34"/>
    <path d="M13.0809 7.14456L8.08089 12.1446C8.03734 12.1883 7.9856 12.2229 7.92862 12.2466C7.87164 12.2703 7.81055 12.2824 7.74886 12.2824C7.68717 12.2824 7.62608 12.2703 7.5691 12.2466C7.51212 12.2229 7.46038 12.1883 7.41683 12.1446L5.22933 9.95706C5.18573 9.91346 5.15114 9.8617 5.12754 9.80473C5.10394 9.74776 5.0918 9.6867 5.0918 9.62503C5.0918 9.56337 5.10394 9.50231 5.12754 9.44534C5.15114 9.38837 5.18573 9.3366 5.22933 9.293C5.27293 9.2494 5.3247 9.21481 5.38167 9.19121C5.43864 9.16761 5.4997 9.15547 5.56136 9.15547C5.62302 9.15547 5.68408 9.16761 5.74105 9.19121C5.79802 9.21481 5.84979 9.2494 5.89339 9.293L7.74925 11.1489L12.4176 6.48128C12.5057 6.39322 12.6251 6.34375 12.7496 6.34375C12.8742 6.34375 12.9936 6.39322 13.0817 6.48128C13.1697 6.56934 13.2192 6.68878 13.2192 6.81331C13.2192 6.93785 13.1697 7.05728 13.0817 7.14534L13.0809 7.14456Z" fill="#FDFEFE"/>
</svg>
