<svg width="9" height="7" viewBox="0 0 9 7" fill="none" xmlns="http://www.w3.org/2000/svg">
    <path d="M8.08089 1.14456L3.08089 6.14456C3.03734 6.18826 2.9856 6.22294 2.92862 6.2466C2.87164 6.27025 2.81055 6.28243 2.74886 6.28243C2.68717 6.28243 2.62608 6.27025 2.5691 6.2466C2.51212 6.22294 2.46038 6.18826 2.41683 6.14456L0.229329 3.95706C0.185726 3.91346 0.151138 3.8617 0.12754 3.80473C0.103942 3.74776 0.0917969 3.6867 0.0917969 3.62503C0.0917969 3.56337 0.103942 3.50231 0.12754 3.44534C0.151138 3.38837 0.185726 3.3366 0.229329 3.293C0.272932 3.2494 0.324696 3.21481 0.381666 3.19121C0.438636 3.16761 0.499696 3.15547 0.56136 3.15547C0.623024 3.15547 0.684084 3.16761 0.741054 3.19121C0.798024 3.21481 0.849788 3.2494 0.893391 3.293L2.74925 5.14886L7.41761 0.481282C7.50567 0.393222 7.6251 0.34375 7.74964 0.34375C7.87418 0.34375 7.99361 0.393222 8.08167 0.481282C8.16973 0.569342 8.2192 0.688777 8.2192 0.813313C8.2192 0.937849 8.16973 1.05728 8.08167 1.14534L8.08089 1.14456Z" fill="#FDFEFE"/>
</svg>
