<svg width="18" height="18" viewBox="0 0 18 18" fill="none" xmlns="http://www.w3.org/2000/svg">
    <path d="M16.0312 10.125V14.625C16.0312 14.8488 15.9424 15.0634 15.7841 15.2216C15.6259 15.3798 15.4113 15.4687 15.1875 15.4687H2.8125C2.58872 15.4687 2.37411 15.3798 2.21588 15.2216C2.05764 15.0634 1.96875 14.8488 1.96875 14.625V10.125C1.96875 9.90122 2.05764 9.68661 2.21588 9.52837C2.37411 9.37014 2.58872 9.28124 2.8125 9.28124C3.03628 9.28124 3.25089 9.37014 3.40912 9.52837C3.56736 9.68661 3.65625 9.90122 3.65625 10.125V13.7812H14.3438V10.125C14.3438 9.90122 14.4326 9.68661 14.5909 9.52837C14.7491 9.37014 14.9637 9.28124 15.1875 9.28124C15.4113 9.28124 15.6259 9.37014 15.7841 9.52837C15.9424 9.68661 16.0312 9.90122 16.0312 10.125ZM6.78445 5.65945L8.15625 4.28906V10.125C8.15625 10.3488 8.24514 10.5634 8.40338 10.7216C8.56161 10.8798 8.77622 10.9687 9 10.9687C9.22378 10.9687 9.43839 10.8798 9.59662 10.7216C9.75485 10.5634 9.84375 10.3488 9.84375 10.125V4.28906L11.2155 5.66156C11.294 5.74004 11.3872 5.8023 11.4898 5.84478C11.5923 5.88725 11.7022 5.90911 11.8132 5.90911C11.9242 5.90911 12.0341 5.88725 12.1367 5.84478C12.2392 5.8023 12.3324 5.74004 12.4109 5.66156C12.4893 5.58307 12.5516 5.4899 12.5941 5.38735C12.6366 5.2848 12.6584 5.17489 12.6584 5.0639C12.6584 4.9529 12.6366 4.843 12.5941 4.74045C12.5516 4.6379 12.4893 4.54473 12.4109 4.46624L9.59836 1.65374C9.51997 1.57508 9.42683 1.51267 9.32427 1.47009C9.22171 1.4275 9.11175 1.40558 9.0007 1.40558C8.88965 1.40558 8.7797 1.4275 8.67714 1.47009C8.57458 1.51267 8.48143 1.57508 8.40305 1.65374L5.59055 4.46624C5.51206 4.54473 5.4498 4.6379 5.40733 4.74045C5.36485 4.843 5.34299 4.9529 5.34299 5.0639C5.34299 5.28806 5.43204 5.50305 5.59055 5.66156C5.74906 5.82006 5.96404 5.90911 6.1882 5.90911C6.41237 5.90911 6.62735 5.82006 6.78586 5.66156L6.78445 5.65945Z" fill="#817E77"/>
</svg>
